<?xml version="1.0" encoding="utf-8"?>
<!-- Generator: Adobe Illustrator 16.0.4, SVG Export Plug-In . SVG Version: 6.00 Build 0)  -->
<!DOCTYPE svg PUBLIC "-//W3C//DTD SVG 1.1//EN" "http://www.w3.org/Graphics/SVG/1.1/DTD/svg11.dtd">
<svg version="1.1" id="Layer_1" xmlns="http://www.w3.org/2000/svg" xmlns:xlink="http://www.w3.org/1999/xlink" x="0px" y="0px"
	 width="341.008px" height="93.768px" viewBox="0 0 341.008 93.768" enable-background="new 0 0 341.008 93.768"
	 xml:space="preserve">
<g>
	<g>
		<path fill="#004164" d="M137.516,46.232l-2.685,5.342l-3.272,6.225h-4.154l-3.229-6.099l-2.812-5.468h-0.168v15.563h-5.763V32.814
			h5.3l5.174,10.221l3.491,7.15h0.252l3.533-7.319l4.964-10.053h5.3v28.981h-5.763V46.232H137.516z"/>
		<path fill="#004164" d="M153.162,41.016v12.829c0,1.178,0.296,1.998,0.888,2.46c0.593,0.463,1.227,0.694,1.903,0.694
			c0.648,0,1.354-0.147,2.115-0.442c0.761-0.294,1.678-0.792,2.749-1.493V41.016h5.342v20.779h-4.924l-0.418-1.809
			c-1.514,0.925-2.776,1.508-3.785,1.746c-1.01,0.238-1.865,0.357-2.566,0.357c-1.178,0-2.187-0.196-3.028-0.589
			c-0.841-0.393-1.528-0.939-2.061-1.641c-0.533-0.7-0.926-1.528-1.178-2.481c-0.253-0.953-0.379-2.004-0.379-3.155V41.016H153.162z
			"/>
		<path fill="#004164" d="M176.422,55.068c0,0.477,0.035,0.854,0.105,1.134c0.069,0.28,0.21,0.497,0.421,0.65
			c0.21,0.154,0.497,0.259,0.862,0.315c0.363,0.057,0.841,0.084,1.43,0.084l0.084,4.543c-0.477,0.084-0.925,0.14-1.346,0.168
			c-0.421,0.027-0.827,0.042-1.22,0.042c-1.262,0-2.265-0.141-3.008-0.421c-0.743-0.28-1.318-0.679-1.725-1.199
			c-0.406-0.519-0.666-1.136-0.778-1.851c-0.112-0.715-0.168-1.521-0.168-2.418V31.678h5.342V55.068z"/>
		<path fill="#004164" d="M181.259,45.349v-4.333h2.691l0.933-5.216h4.325v5.216h5.048v4.333h-5.048v8.634
			c0,0.978,0.161,1.747,0.483,2.306s1.073,0.838,2.251,0.838c0.393,0,0.841-0.035,1.346-0.105c0.505-0.07,1.065-0.189,1.683-0.358
			l0.968,4.579c-0.898,0.339-1.83,0.558-2.798,0.657c-0.967,0.099-1.787,0.148-2.46,0.148c-1.35,0-2.47-0.183-3.359-0.547
			c-0.891-0.364-1.59-0.876-2.099-1.535c-0.509-0.659-0.862-1.444-1.061-2.355c-0.197-0.911-0.296-1.899-0.296-2.965v-9.296H181.259
			z"/>
		<path fill="#004164" d="M198.756,35.38c0-0.841,0.295-1.557,0.884-2.146s1.289-0.883,2.103-0.883s1.515,0.294,2.104,0.883
			s0.883,1.304,0.883,2.146s-0.294,1.55-0.883,2.124c-0.589,0.575-1.29,0.862-2.104,0.862s-1.514-0.287-2.103-0.862
			C199.051,36.93,198.756,36.221,198.756,35.38z M199.093,61.795V41.016h5.342v20.779H199.093z"/>
		<path fill="#004164" d="M222.816,32.814c1.43,0,2.663,0.273,3.701,0.82c1.037,0.547,1.899,1.255,2.587,2.124
			c0.687,0.87,1.191,1.844,1.514,2.923c0.322,1.08,0.484,2.139,0.484,3.176c0,1.066-0.189,2.131-0.568,3.197
			c-0.378,1.066-0.925,2.033-1.641,2.902c-0.715,0.869-1.598,1.577-2.649,2.124s-2.25,0.82-3.597,0.82h-7.024v10.894h-5.763V32.814
			H222.816z M215.623,45.727h5.889c1.318,0,2.313-0.366,2.986-1.1c0.674-0.733,1.01-1.649,1.01-2.749
			c0-1.128-0.344-2.058-1.03-2.792c-0.688-0.732-1.676-1.099-2.966-1.099h-5.889V45.727z"/>
		<path fill="#004164" d="M245.234,60.07c-1.262,0.729-2.397,1.227-3.407,1.493c-1.009,0.266-1.949,0.4-2.817,0.4
			c-2.132,0-3.779-0.568-4.942-1.704c-1.164-1.136-1.746-2.685-1.746-4.648c0-1.149,0.238-2.124,0.715-2.923s1.087-1.451,1.83-1.956
			c0.742-0.505,1.562-0.869,2.461-1.094c0.896-0.224,1.752-0.336,2.565-0.336h5.384v-0.883c0-0.981-0.28-1.717-0.841-2.208
			c-0.562-0.49-1.557-0.736-2.986-0.736c-0.673,0-1.508,0.099-2.503,0.294c-0.996,0.197-1.998,0.701-3.008,1.514l-2.397-3.912
			c1.458-1.121,2.924-1.851,4.396-2.187c1.473-0.337,2.825-0.505,4.06-0.505c2.966,0,5.145,0.673,6.536,2.019
			c1.391,1.346,2.086,3.379,2.086,6.099v12.997h-4.883l-0.375-1.683L245.234,60.07z M245.318,53.256h-4.458
			c-0.337,0-0.667,0.021-0.988,0.063c-0.323,0.042-0.617,0.141-0.884,0.294c-0.267,0.154-0.483,0.365-0.652,0.631
			c-0.168,0.267-0.252,0.61-0.252,1.031c0,0.561,0.203,1.017,0.61,1.367c0.405,0.351,1.016,0.526,1.829,0.526
			c0.897,0,1.78-0.175,2.65-0.526c0.868-0.35,1.584-0.679,2.145-0.988V53.256z"/>
		<path fill="#004164" d="M268.578,46.19c-1.85,0.168-3.371,0.456-4.562,0.862c-1.192,0.407-2.279,0.904-3.26,1.493v13.25h-5.343
			V40.932h4.922l0.378,3.07h0.043c0.363-0.364,0.848-0.743,1.451-1.136c0.603-0.392,1.254-0.75,1.955-1.072
			c0.701-0.322,1.431-0.589,2.188-0.799s1.499-0.315,2.229-0.315V46.19z"/>
		<path fill="#004164" d="M287.549,58.935c-0.617,0.646-1.248,1.171-1.894,1.578c-0.646,0.407-1.304,0.722-1.977,0.946
			c-0.673,0.225-1.34,0.371-1.998,0.441c-0.659,0.07-1.325,0.105-1.998,0.105c-1.15,0-2.243-0.155-3.28-0.463
			c-1.038-0.308-1.95-0.778-2.734-1.409c-0.785-0.631-1.409-1.416-1.872-2.355c-0.463-0.939-0.694-2.04-0.694-3.302v-6.141
			c0-1.262,0.253-2.369,0.758-3.323c0.505-0.953,1.163-1.746,1.977-2.377c0.813-0.631,1.731-1.107,2.755-1.43
			s2.054-0.484,3.092-0.484c0.645,0,1.304,0.028,1.978,0.084c0.673,0.057,1.338,0.183,1.997,0.379s1.311,0.483,1.956,0.862
			c0.646,0.379,1.276,0.891,1.894,1.536l-3.071,3.912c-0.981-0.869-1.815-1.395-2.502-1.577c-0.688-0.182-1.283-0.273-1.788-0.273
			c-0.421,0-0.855,0.063-1.304,0.189c-0.449,0.126-0.849,0.337-1.199,0.631s-0.638,0.673-0.862,1.135
			c-0.225,0.463-0.336,1.017-0.336,1.662v4.164c0,0.673,0.104,1.241,0.315,1.704c0.21,0.463,0.483,0.841,0.82,1.136
			c0.336,0.294,0.722,0.505,1.156,0.631c0.435,0.126,0.876,0.189,1.325,0.189c0.561,0,1.24-0.126,2.04-0.378
			c0.799-0.252,1.549-0.729,2.25-1.43L287.549,58.935z"/>
		<path fill="#004164" d="M295.75,52.962v0.673c0,0.617,0.105,1.15,0.315,1.599c0.211,0.449,0.49,0.813,0.842,1.093
			c0.35,0.281,0.749,0.491,1.198,0.631c0.448,0.141,0.926,0.21,1.431,0.21c0.589,0,1.317-0.091,2.187-0.273
			c0.869-0.182,1.795-0.666,2.776-1.451l2.944,3.66c-0.646,0.617-1.289,1.115-1.935,1.493c-0.646,0.378-1.29,0.673-1.936,0.883
			c-0.645,0.21-1.297,0.35-1.955,0.42c-0.659,0.07-1.325,0.105-1.998,0.105c-1.234,0-2.405-0.155-3.513-0.463
			s-2.082-0.778-2.923-1.409c-0.842-0.631-1.515-1.423-2.02-2.376c-0.505-0.953-0.757-2.088-0.757-3.407v-5.384
			c0-1.29,0.231-2.446,0.694-3.47c0.462-1.023,1.1-1.885,1.913-2.587c0.813-0.7,1.753-1.233,2.818-1.598
			c1.065-0.364,2.215-0.547,3.449-0.547c1.29,0,2.481,0.183,3.575,0.547c1.094,0.365,2.033,0.891,2.818,1.577
			c0.785,0.688,1.402,1.536,1.852,2.545c0.447,1.01,0.673,2.16,0.673,3.449v4.08H295.75z M302.858,49.055
			c0-1.165-0.351-2.017-1.052-2.558s-1.528-0.812-2.481-0.812c-0.981,0-1.823,0.306-2.523,0.916c-0.701,0.61-1.052,1.483-1.052,2.62
			v0.25h7.108V49.055z"/>
		<path fill="#004164" d="M318.295,55.068c0,0.477,0.035,0.854,0.105,1.134s0.211,0.497,0.42,0.65
			c0.211,0.154,0.498,0.259,0.863,0.315c0.363,0.057,0.842,0.084,1.43,0.084l0.084,4.543c-0.477,0.084-0.926,0.14-1.346,0.168
			c-0.42,0.027-0.828,0.042-1.219,0.042c-1.264,0-2.266-0.141-3.008-0.421c-0.744-0.28-1.318-0.679-1.725-1.199
			c-0.408-0.519-0.666-1.136-0.779-1.851c-0.111-0.715-0.168-1.521-0.168-2.418V31.678h5.342V55.068z"/>
		<path fill="#004164" d="M332.301,62.005c-0.757,0-1.521-0.035-2.292-0.104c-0.772-0.07-1.543-0.208-2.313-0.417
			c-0.772-0.208-1.543-0.507-2.313-0.896c-0.771-0.389-1.55-0.917-2.335-1.584l2.902-3.813c1.037,0.87,2.075,1.466,3.112,1.788
			s2.089,0.483,3.155,0.483c0.953,0,1.738-0.175,2.355-0.527c0.616-0.351,0.925-0.836,0.925-1.455c0-0.506-0.188-0.914-0.567-1.223
			s-1.045-0.548-1.998-0.717c-0.953-0.168-1.942-0.358-2.966-0.569c-1.023-0.21-1.955-0.526-2.797-0.948
			c-0.841-0.422-1.528-0.999-2.061-1.729c-0.533-0.73-0.8-1.701-0.8-2.91c0-1.096,0.225-2.058,0.673-2.888s1.037-1.518,1.767-2.066
			c0.729-0.548,1.563-0.963,2.503-1.244s1.914-0.422,2.924-0.422c1.654,0,3.154,0.147,4.5,0.442
			c1.347,0.294,2.678,0.946,3.996,1.956l-2.523,3.996c-1.066-0.729-2.097-1.199-3.092-1.409s-1.928-0.315-2.797-0.315
			c-0.926,0-1.605,0.183-2.04,0.547c-0.436,0.365-0.652,0.785-0.652,1.262c0,0.533,0.28,0.912,0.842,1.136
			c0.561,0.225,1.269,0.421,2.124,0.589c0.854,0.168,1.773,0.351,2.755,0.547c0.981,0.196,1.899,0.512,2.755,0.946
			c0.855,0.435,1.563,1.038,2.124,1.809c0.561,0.772,0.842,1.816,0.842,3.134c0,1.094-0.231,2.047-0.694,2.86
			c-0.463,0.813-1.094,1.5-1.893,2.061c-0.799,0.561-1.725,0.982-2.776,1.262C334.593,61.865,333.479,62.005,332.301,62.005z"/>
	</g>
	<g>
		<polygon fill="#F59C00" points="50.842,56.895 70.067,46.657 69.781,71.667 90.466,61.173 92.837,21.601 50.842,43.197 
			8.842,21.601 8.842,21.601 11.211,61.173 31.897,71.667 31.612,46.657 50.836,56.895 		"/>
		<g>
			<polygon fill="#004164" points="92.837,21.601 90.466,61.173 69.781,71.667 70.067,46.657 50.842,56.895 50.842,93.768 
				97.972,67.281 101.672,17.057 50.829,0 0,17.042 8.846,21.596 29.088,14.334 50.829,23.714 72.754,14.334 92.832,21.601 			"/>
		</g>
		<polygon points="31.897,71.667 11.211,61.173 8.842,21.601 0.008,17.057 3.706,67.281 50.836,93.768 50.836,56.895 31.612,46.657 
					"/>
		<polygon fill="#FFCC00" points="72.754,14.334 50.829,23.714 29.088,14.334 8.846,21.596 8.836,21.601 50.829,43.195 
			92.837,21.601 92.832,21.601 		"/>
	</g>
</g>
</svg>
